<svg width="248" height="66" viewBox="0 0 248 66" fill="none" xmlns="http://www.w3.org/2000/svg">
<path d="M29.8438 63.5625C25.7188 63.5625 21.8438 62.75 18.2188 61.125C14.6562 59.5 11.5 57.2812 8.75 54.4688C6.0625 51.6562 3.9375 48.4062 2.375 44.7188C0.875 40.9688 0.125 37 0.125 32.8125C0.125 28.375 0.90625 24.2188 2.46875 20.3438C4.03125 16.4062 6.21875 12.9688 9.03125 10.0312C11.8438 7.03125 15.0938 4.6875 18.7812 3C22.5312 1.3125 26.5625 0.46875 30.875 0.46875C35.3125 0.46875 42.7188 1.875 53.0938 4.6875L53.4688 16.3125C53.4688 17.25 52.8125 17.7188 51.5 17.7188C50.875 17.7188 50.4688 17.5625 50.2812 17.25C48.5938 8.6875 42.2188 4.40625 31.1562 4.40625C27.0312 4.40625 23.3125 5.625 20 8.0625C16.6875 10.5 14.0625 13.7812 12.125 17.9062C10.1875 22.0312 9.21875 26.5938 9.21875 31.5938C9.21875 35.0312 9.8125 38.4375 11 41.8125C12.25 45.125 13.9375 48.125 16.0625 50.8125C18.25 53.4375 20.8125 55.5625 23.75 57.1875C26.75 58.75 29.9688 59.5312 33.4062 59.5312C38.9688 59.5312 43.0312 58.8438 45.5938 57.4688C46.0312 57.2812 46.25 56.8125 46.25 56.0625L46.1562 48.375V47.7188C46.1562 43.7188 45.9062 41.0312 45.4062 39.6562C45.2812 39.2188 44.75 38.875 43.8125 38.625C42.875 38.3125 41.875 38.0625 40.8125 37.875C39.75 37.6875 38.875 37.5938 38.1875 37.5938C37.9375 37.5938 37.8125 37.1875 37.8125 36.375C37.8125 35.625 37.9375 35.125 38.1875 34.875L50.4688 35.3438L60.5938 34.875C60.7188 35.375 60.7812 35.8125 60.7812 36.1875C60.7812 37.125 60.6562 37.5938 60.4062 37.5938C60.1562 37.5938 59.6562 37.6875 58.9062 37.875C58.2188 38.0625 57.4688 38.2812 56.6562 38.5312C55.9062 38.7812 55.3438 39.0312 54.9688 39.2812C54.3438 39.7188 54.0312 41.8125 54.0312 45.5625C54.0312 46.1875 54.0312 46.875 54.0312 47.625C54.0938 48.3125 54.1562 49.0312 54.2188 49.7812L54.3125 52.3125C54.3125 53.5625 54.5312 54.6562 54.9688 55.5938C55.4062 56.5312 55.625 57.1562 55.625 57.4688C55.625 57.9688 54.8438 58.5312 53.2812 59.1562C52.2812 59.6562 51.4375 60 50.75 60.1875C50.0625 60.375 49.5938 60.5312 49.3438 60.6562C49.0312 60.7812 48.3438 61.0312 47.2812 61.4062C46.2188 61.7188 45.3438 61.9375 44.6562 62.0625C42.9688 62.375 41.4062 62.6562 39.9688 62.9062C38.5312 63.0938 37.0312 63.25 35.4688 63.375C33.9062 63.5 32.0312 63.5625 29.8438 63.5625ZM75.9688 54.6562C70.0938 48.5312 67.1562 41.0625 67.1562 32.25C67.1562 27.875 67.9375 23.7812 69.5 19.9688C71.0625 16.0938 73.1875 12.7188 75.875 9.84375C78.625 6.90625 81.8125 4.625 85.4375 3C89.0625 1.3125 92.9375 0.46875 97.0625 0.46875C101.188 0.46875 105.062 1.3125 108.688 3C112.312 4.625 115.5 6.90625 118.25 9.84375C121 12.7188 123.156 16.0938 124.719 19.9688C126.281 23.7812 127.062 27.875 127.062 32.25C127.062 41.0625 124.125 48.5312 118.25 54.6562C114.25 58.9062 109.719 61.7188 104.656 63.0938C99.5938 64.5312 94.5312 64.5312 89.4688 63.0938C84.4688 61.7188 79.9688 58.9062 75.9688 54.6562ZM98.5625 59.9062C102.562 59.9062 106.062 58.5938 109.062 55.9688C112.062 53.4062 114.25 50.2188 115.625 46.4062C117.062 42.5312 117.781 38.4062 117.781 34.0312C117.781 29.0938 116.969 24.375 115.344 19.875C113.719 15.4375 111.188 11.75 107.75 8.8125C104.312 5.875 100.281 4.40625 95.6562 4.40625C91.7188 4.40625 88.3125 5.625 85.4375 8.0625C82.5625 10.4375 80.3438 13.5938 78.7812 17.5312C77.2188 21.4062 76.4375 25.625 76.4375 30.1875C76.4375 35.125 77.25 39.8438 78.875 44.3438C80.5 48.7812 83.0312 52.5 86.4688 55.5C89.9062 58.4375 93.9375 59.9062 98.5625 59.9062ZM178.25 63.375C175 63.375 169.938 63.2812 163.062 63.0938C159.625 62.9688 156.5 62.875 153.688 62.8125C150.875 62.75 148.406 62.75 146.281 62.8125L134.938 63.0938C134.75 62.9062 134.656 62.4062 134.656 61.5938C134.656 60.7812 134.75 60.375 134.938 60.375C135.562 60.375 136.312 60.2812 137.188 60.0938C138.125 59.9062 139 59.6875 139.812 59.4375C140.688 59.125 141.219 58.7812 141.406 58.4062C141.844 57.7188 142.062 54.7812 142.062 49.5938V14.1562C142.062 10.0312 141.844 7.1875 141.406 5.625C141.281 5.25 140.812 4.9375 140 4.6875C139.188 4.375 138.312 4.125 137.375 3.9375C136.438 3.75 135.688 3.65625 135.125 3.65625C134.875 3.65625 134.75 3.25 134.75 2.4375C134.75 1.6875 134.875 1.1875 135.125 0.9375C135.688 0.9375 136.625 1 137.938 1.125C139.312 1.1875 140.781 1.28125 142.344 1.40625C143.906 1.46875 145.25 1.5 146.375 1.5C148.375 1.5 150.375 1.4375 152.375 1.3125C154.375 1.125 156 1 157.25 0.9375C157.375 1.4375 157.438 1.90625 157.438 2.34375C157.438 3.21875 157.312 3.65625 157.062 3.65625C156.688 3.65625 156.031 3.78125 155.094 4.03125C154.156 4.21875 153.281 4.46875 152.469 4.78125C151.656 5.03125 151.188 5.3125 151.062 5.625C150.5 7.75 150.219 10.6562 150.219 14.3438V49.6875C150.219 53 150.5 55.75 151.062 57.9375C151.25 58.5625 153.375 58.875 157.438 58.875H161.938C167.688 58.875 171.625 58.3438 173.75 57.2812C174.688 56.7812 175.719 55.6875 176.844 54C178.031 52.25 178.969 50.1875 179.656 47.8125C179.781 47.4375 180.219 47.25 180.969 47.25C182.156 47.25 182.938 47.4375 183.312 47.8125C183.125 48.3125 182.812 49.0938 182.375 50.1562C182 51.1562 181.625 52.1875 181.25 53.25C180.875 54.3125 180.562 55.2188 180.312 55.9688C179.938 57.0938 179.531 58.375 179.094 59.8125C178.656 61.25 178.375 62.4375 178.25 63.375ZM188.094 63.2812C187.906 63.0938 187.812 62.625 187.812 61.875C187.812 61 187.906 60.5625 188.094 60.5625C188.656 60.5625 189.406 60.4688 190.344 60.2812C191.281 60.0312 192.156 59.75 192.969 59.4375C193.844 59.125 194.375 58.7812 194.562 58.4062C195 57.7188 195.219 54.7812 195.219 49.5938V14.1562C195.219 12.3438 195.156 10.75 195.031 9.375C194.969 8 194.812 6.90625 194.562 6.09375C194.438 5.71875 193.938 5.375 193.062 5.0625C192.25 4.75 191.344 4.5 190.344 4.3125C189.406 4.125 188.656 4.03125 188.094 4.03125C187.844 4.03125 187.719 3.65625 187.719 2.90625C187.719 2.09375 187.844 1.5625 188.094 1.3125C189.719 1.375 191.438 1.4375 193.25 1.5C195.125 1.5 197.125 1.5 199.25 1.5L208.344 1.40625C210.156 1.40625 211.656 1.40625 212.844 1.40625C214.031 1.34375 214.938 1.3125 215.562 1.3125C222.375 1.3125 228.188 2.71875 233 5.53125C237.812 8.28125 241.5 11.9375 244.062 16.5C246.625 21.0625 247.906 26.0625 247.906 31.5C247.906 37.5 246.594 42.9375 243.969 47.8125C241.406 52.6875 237.688 56.5312 232.812 59.3438C228 62.1562 222.219 63.4688 215.469 63.2812L208.812 63.0938C206.938 63.0312 205.219 63 203.656 63C202.094 62.9375 200.688 62.9375 199.438 63L188.094 63.2812ZM216.969 58.9688C231.344 58.9688 238.531 49.6875 238.531 31.125C238.531 26.375 237.688 22.0625 236 18.1875C234.312 14.3125 231.812 11.2188 228.5 8.90625C225.25 6.59375 221.188 5.4375 216.312 5.4375H215.844C209.094 5.4375 205.344 5.9375 204.594 6.9375C203.781 8 203.375 9.96875 203.375 12.8438V49.9688C203.375 52.5312 203.844 54.9062 204.781 57.0938C204.906 57.4062 205.438 57.6875 206.375 57.9375C207.312 58.125 208.438 58.3125 209.75 58.5C211.125 58.625 212.469 58.75 213.781 58.875C215.094 58.9375 216.156 58.9688 216.969 58.9688Z" fill="white"/>
</svg>
